HIERARCHY
ROOT Hips
{
	OFFSET -3.958830 18.904000 13.208200
	CHANNELS 6 Xposition Yposition Zposition Zrotation Yrotation Xrotation 
	JOINT LHipJoint
	{
		OFFSET 0.000000 0.000000 0.000000
		CHANNELS 3 Zrotation Yrotation Xrotation
		JOINT LeftUpLeg
		{
			OFFSET 1.800000 -1.400000 0.085000
			CHANNELS 3 Zrotation Yrotation Xrotation
			JOINT LeftLeg
			{
				OFFSET 2.215000 -6.000000 0.000000
				CHANNELS 3 Zrotation Yrotation Xrotation
				JOINT LeftFoot
				{
					OFFSET 2.500000 -6.900000 0.000000
					CHANNELS 3 Zrotation Yrotation Xrotation
					JOINT LeftToeBase
					{
						OFFSET 0.200000 -0.500000 1.950000
						CHANNELS 3 Zrotation Yrotation Xrotation
						End Site
						{
							OFFSET 0.000000 0.000000 0.000000
						}
					}
				}
			}
		}
	}
	JOINT RHipJoint
	{
		OFFSET 0.000000 0.000000 0.000000
		CHANNELS 3 Zrotation Yrotation Xrotation
		JOINT RightUpLeg
		{
			OFFSET -1.800000 -1.400000 0.085000
			CHANNELS 3 Zrotation Yrotation Xrotation
			JOINT RightLeg
			{
				OFFSET -2.215000 -6.000000 0.000000
				CHANNELS 3 Zrotation Yrotation Xrotation
				JOINT RightFoot
				{
					OFFSET -2.500000 -6.900000 0.000000
					CHANNELS 3 Zrotation Yrotation Xrotation
					JOINT RightToeBase
					{
						OFFSET -0.200000 -0.500000 1.950000
						CHANNELS 3 Zrotation Yrotation Xrotation
						End Site
						{
							OFFSET 0.000000 0.000000 0.000000
						}
					}
				}
			}
		}
	}
	JOINT LowerBack
	{
		OFFSET 0.000000 0.000000 0.000000
		CHANNELS 3 Zrotation Yrotation Xrotation
		JOINT Spine
		{
			OFFSET -0.087000 1.940000 -0.288900
			CHANNELS 3 Zrotation Yrotation Xrotation
			JOINT Spine1
			{
				OFFSET 0.000000 1.950000 0.060000
				CHANNELS 3 Zrotation Yrotation Xrotation
				JOINT Neck
				{
					OFFSET 0.000000 0.000000 0.000000
					CHANNELS 3 Zrotation Yrotation Xrotation
					JOINT Neck1
					{
						OFFSET 0.000000 1.600000 0.340000
						CHANNELS 3 Zrotation Yrotation Xrotation
						JOINT Head
						{
							OFFSET 0.000000 1.667000 -0.240000
							CHANNELS 3 Zrotation Yrotation Xrotation
							End Site
							{
								OFFSET 0.000000 0.000000 0.000000
							}
						}
					}
				}
				JOINT LeftShoulder
				{
					OFFSET 0.000000 0.000000 0.000000
					CHANNELS 3 Zrotation Yrotation Xrotation
					JOINT LeftArm
					{
						OFFSET 2.700000 1.550000 -0.730000
						CHANNELS 3 Zrotation Yrotation Xrotation
						JOINT LeftForeArm
						{
							OFFSET 5.450000 0.000000 0.000000
							CHANNELS 3 Zrotation Yrotation Xrotation
							JOINT LeftHand
							{
								OFFSET 3.450000 0.000000 0.000000
								CHANNELS 3 Zrotation Yrotation Xrotation
								JOINT LeftHandIndex1
								{
									OFFSET 0.750000 0.000000 0.000000
									CHANNELS 3 Zrotation Yrotation Xrotation
									End Site
									{
										OFFSET 0.000000 0.000000 0.000000
									}
								}
							}
						}
					}
				}
				JOINT RightShoulder
				{
					OFFSET 0.000000 0.000000 0.000000
					CHANNELS 3 Zrotation Yrotation Xrotation
					JOINT RightArm
					{
						OFFSET -2.700000 1.550000 -0.730000
						CHANNELS 3 Zrotation Yrotation Xrotation
						JOINT RightForeArm
						{
							OFFSET -5.450000 0.000000 0.000000
							CHANNELS 3 Zrotation Yrotation Xrotation
							JOINT RightHand
							{
								OFFSET -3.450000 0.000000 0.000000
								CHANNELS 3 Zrotation Yrotation Xrotation
								JOINT RightHandIndex1
								{
									OFFSET -0.750000 0.000000 0.000000
									CHANNELS 3 Zrotation Yrotation Xrotation
									End Site
									{
										OFFSET 0.000000 0.000000 0.000000
									}
								}
							}
						}
					}
				}
			}
		}
	}
}
MOTION
Frames: 12
Frame Time: 0.016667
0.864960 17.336470 -1.431250 -17.624790 -26.150884 1.358510 -14.866899 12.493576 0.728694 16.593328 -0.267594 -6.920468 4.087558 5.873453 25.688482 -0.501628 5.000127 2.882488 0.506120 0.071540 0.483130 18.933318 -8.116055 6.861987 -16.205363 16.985355 -60.495129 14.116517 -47.023487 101.116658 -4.784173 -20.227949 -0.830807 -0.129100 -0.131870 0.052250 -5.332493 -1.924793 -8.444030 30.971523 -14.555837 25.359167 -14.518957 -6.108568 8.977518 4.298713 -6.884645 -14.857009 -23.400118 14.388274 58.894696 -5.970450 7.199350 -27.451770 -19.865630 -12.653821 7.322138 1.771253 16.812384 -1.748497 -98.033127 -68.476800 68.097273 -3.265331 2.983608 1.233160 -0.318870 0.304870 0.148040 11.505457 14.516722 9.860044 1.692413 -17.125419 -6.209262 36.481275 63.513640 19.574705 2.015479 -1.449860 -0.274430 0.327350 -0.102870 -0.406730 
0.840500 17.258350 -1.423500 -17.037122 -27.562064 0.814747 -14.846231 12.568187 0.837765 16.726510 -0.168752 -6.767438 2.950379 6.586250 27.216746 -0.481437 5.359690 2.761875 0.484160 0.082300 0.427260 18.912380 -8.390862 6.520462 -13.613992 17.026408 -55.793902 10.827322 -43.487739 102.193048 -4.592267 -19.759222 -0.764578 -0.083040 -0.036580 0.030330 -5.363536 -1.811794 -8.326816 30.366715 -13.913883 24.452199 -14.878204 -6.257322 8.689466 3.934780 -7.310574 -14.171966 -23.476502 14.564266 55.961798 -4.392180 7.007490 -23.644440 -20.850866 -12.622799 6.931987 -0.328290 14.403860 -2.334677 -85.042720 -68.273626 56.247529 -3.288703 3.085316 1.154310 -0.236380 0.230840 0.161740 13.095286 14.550978 9.493444 3.240131 -15.378539 -6.873207 34.748704 64.288004 18.672660 1.957882 -1.465851 -0.304870 0.373420 -0.075380 -0.382310 
0.786670 17.136050 -1.402620 -15.605915 -29.513718 -1.442752 -14.829267 12.869696 1.062509 16.689902 0.121879 -4.397928 1.738676 7.298085 27.942791 -0.315596 5.724209 2.679992 0.529410 0.178130 0.395380 18.823106 -8.833257 5.973464 -10.828202 15.926350 -47.192485 8.171828 -38.694135 100.845018 -4.291519 -18.723339 -0.578409 -0.030670 0.056530 0.079990 -5.243089 -1.925355 -8.210767 27.599380 -12.489471 24.787365 -13.928639 -6.446708 7.934424 3.421254 -6.917898 -13.182134 -21.022582 13.934130 53.616957 -3.575790 7.512000 -18.043780 -22.928154 -13.249479 6.496254 -3.627202 12.048544 -3.887553 -68.330761 -65.265046 40.848272 -3.236940 3.294179 1.008730 -0.124950 0.194400 0.243240 16.024037 14.741769 8.982087 5.857382 -13.034353 -7.907710 31.531532 63.377014 16.140783 1.903357 -1.574784 -0.244040 0.350040 -0.127010 -0.308230 
0.720560 16.996250 -1.362060 -14.027857 -32.647176 -2.489839 -14.839041 13.169265 1.338231 16.068548 0.399371 -3.078271 0.172527 8.178537 28.888394 -0.236861 6.184657 2.566698 0.504630 0.133710 0.363260 18.724928 -9.256394 5.382906 -8.811991 14.640116 -39.188950 5.650857 -33.088123 98.064938 -3.869065 -17.447171 -0.370317 -0.010130 0.171800 0.115580 -5.067272 -2.121064 -8.079160 24.622662 -10.346956 23.226662 -12.431622 -5.809394 7.706013 3.110326 -6.637536 -12.415286 -19.017029 13.625039 50.772064 -3.711950 8.321730 -12.273780 -24.716015 -13.213590 6.293155 -9.539966 10.414532 -5.602186 -54.342045 -62.180177 28.607912 -3.306204 3.313969 0.909330 -0.001670 0.099670 0.267900 18.316102 14.750848 8.473599 9.375415 -10.772157 -9.123823 27.960424 62.721211 13.612287 1.822824 -1.649632 -0.268200 0.335860 -0.109120 -0.295480 
0.635240 16.835990 -1.313220 -11.687258 -35.291591 -2.982791 -14.845769 13.331489 1.582417 14.593867 0.522195 -2.855317 -1.438880 9.009454 30.197696 -0.202199 6.589248 2.462273 0.514680 0.151220 0.338690 18.665601 -9.730959 4.755895 -7.886485 12.809731 -32.550823 3.251207 -27.698432 94.430499 -3.447963 -16.207994 -0.159752 0.066130 0.282460 0.144830 -4.974467 -2.057838 -7.837021 21.339125 -7.788803 18.930430 -11.148864 -4.706986 9.464228 2.723157 -6.174133 -11.166233 -16.636307 13.043252 47.562470 -3.779890 8.908210 -8.335590 -25.354034 -12.280091 5.566520 -16.745989 6.879125 -7.322707 -38.220849 -60.419317 17.388728 -3.420585 3.271143 0.800520 0.124120 0.005090 0.306730 19.607051 13.626122 7.705217 15.393894 -7.996499 -10.469820 23.869137 61.482907 10.544024 1.720511 -1.723162 -0.300440 0.331700 -0.111700 -0.280640 
0.543060 16.701960 -1.269580 -8.377926 -37.582654 -4.318852 -14.904132 13.571474 1.903603 12.601448 0.584683 -2.740673 -3.218558 9.977414 31.813422 -0.047128 6.994291 2.343907 0.519790 0.186000 0.290610 18.547830 -10.222556 4.018153 -7.818126 10.388036 -25.894505 0.641825 -22.046583 89.224941 -2.986947 -14.821449 0.142666 0.101600 0.359120 0.181250 -4.615716 -2.162622 -7.588050 16.365224 -5.283161 14.997628 -9.577752 -3.335657 10.505958 2.566157 -5.242095 -10.238094 -14.100710 12.042549 45.978613 -3.864370 9.100260 -3.883460 -25.490238 -11.016115 4.743789 -24.134860 2.693348 -8.340507 -22.179165 -56.613524 7.626116 -3.507081 3.234410 0.650680 0.236440 -0.073170 0.350630 20.023333 12.263113 7.250793 23.829428 -5.160645 -11.493466 21.283029 59.128516 8.116445 1.676564 -1.780018 -0.264420 0.273740 -0.134960 -0.234730 
0.471440 16.581490 -1.235010 -6.136243 -38.311522 -5.174140 -14.934270 13.832948 2.179278 11.270882 0.181976 -3.366578 -4.003237 10.408966 33.455420 0.090882 7.249494 2.293336 0.514730 0.220610 0.235230 18.455312 -10.770943 3.189065 -8.244878 6.977205 -18.910583 -1.014554 -17.729098 81.078349 -2.528130 -13.243727 0.547928 0.120980 0.430070 0.152910 -4.251640 -2.276069 -7.195336 13.076506 -4.163524 11.477256 -8.426837 -2.824236 11.001737 2.341272 -5.228587 -9.887642 -14.136108 12.315199 45.202737 -1.659520 8.570960 -1.287020 -24.955066 -9.307916 4.348986 -32.616168 -0.777952 -9.145429 -12.475079 -56.749523 2.424331 -3.514402 3.137782 0.571380 0.271640 -0.110730 0.410090 20.012427 10.869449 7.109633 33.162899 -3.562923 -12.726605 17.466834 56.838049 5.359395 1.679032 -1.749239 -0.261020 0.298390 -0.170630 -0.175950 
0.411510 16.495920 -1.211130 -4.586425 -41.098592 -6.003161 -14.904419 14.014683 2.493018 10.306428 -0.141831 -3.320547 -5.319827 11.209699 35.167947 0.207847 7.588336 2.186735 0.535970 0.257940 0.254750 18.404281 -11.373275 2.478344 -8.610003 4.069182 -11.263258 -2.810454 -12.981103 69.836220 -2.002728 -11.161384 1.121244 0.135950 0.396310 0.086540 -4.105806 -2.084280 -6.852219 11.658773 -2.842744 9.469669 -8.272504 -1.735510 10.805290 2.334327 -5.346428 -10.048228 -15.078895 12.898647 47.110652 0.092430 8.281680 -1.045230 -25.302018 -8.057711 4.351405 -38.885424 -2.321512 -9.865427 -6.869117 -59.021152 -0.839085 -3.416813 3.023160 0.617440 0.210790 -0.075570 0.432390 20.355597 10.092780 7.257704 41.781385 -2.391623 -13.825124 12.671720 53.033362 2.445228 1.715973 -1.624134 -0.286150 0.337640 -0.219850 -0.175270 
0.393460 16.447810 -1.230500 -5.298303 -44.243706 -5.137816 -14.838053 14.046717 2.758159 10.915068 -0.926148 -4.736480 -6.623104 12.335033 38.143220 0.337868 8.161919 1.947992 0.517870 0.240030 0.263540 18.408977 -11.745719 2.123227 -7.751537 1.582719 -5.116969 -4.184219 -9.669280 57.978760 -1.559508 -9.205712 1.724679 0.086940 0.344240 0.089770 -4.213615 -1.827530 -6.691334 12.930191 -1.861772 8.740568 -8.387645 -0.897265 10.053462 2.688094 -5.497036 -10.423138 -16.397382 13.213656 49.813750 -0.997790 8.729260 -1.903500 -26.710696 -7.439957 4.552413 -43.142184 -3.139117 -10.274251 -4.192436 -63.589333 -2.958073 -3.378887 2.949058 0.673040 0.168380 -0.017600 0.406350 20.953600 9.719005 7.496808 48.325972 -1.867799 -14.388331 8.460732 47.912178 0.350985 1.748092 -1.454088 -0.263840 0.340950 -0.198830 -0.189320 
0.357740 16.402990 -1.252770 -7.133176 -47.371982 -3.091090 -14.815099 13.868774 2.980719 12.447029 -1.932231 -6.892007 -8.159444 13.858092 41.751597 0.498473 8.914203 1.628631 0.571430 0.274300 0.326440 18.436373 -11.847511 2.025209 -5.908217 -0.280484 -0.939736 -6.267593 -7.184015 49.163977 -1.323019 -7.884562 2.138435 0.073930 0.249710 0.130100 -4.453813 -1.524339 -6.606633 15.007710 -1.186284 7.907517 -8.742824 -0.385247 9.494549 3.090671 -5.458298 -10.431868 -16.941459 13.766485 52.159948 -2.161290 9.892730 -2.262180 -27.603119 -6.023744 4.560155 -46.589750 -3.225555 -10.411039 -4.025201 -69.124442 -3.811769 -3.315546 3.010704 0.720510 0.121050 0.047910 0.395830 20.872693 8.205165 7.049673 52.828702 -1.670811 -13.557963 7.000476 40.320738 -0.294865 1.830572 -1.385231 -0.212820 0.263130 -0.230630 -0.214680 
0.317720 16.378930 -1.270410 -9.066731 -50.010093 -0.735667 -14.821633 13.504697 3.310115 13.982186 -3.416367 -10.476486 -9.843058 15.825936 46.692399 0.724269 9.923837 1.251017 0.611090 0.314540 0.374940 18.471062 -11.797335 1.997143 -5.001126 -1.985915 2.503654 -7.325524 -5.931595 41.008458 -1.166223 -6.850344 2.486229 0.078480 0.176780 0.101120 -4.779222 -1.225739 -6.634793 17.524565 -0.888837 7.486744 -9.612221 -0.147773 8.496483 3.197589 -6.015686 -10.694675 -19.225729 14.814425 54.274369 -1.751140 9.880050 -2.735160 -27.263591 -4.108603 4.591765 -49.657987 -2.383722 -10.136539 -9.517555 -74.017487 -0.630113 -3.244097 3.056916 0.766240 0.052210 0.099530 0.393520 20.119251 6.635248 6.551560 56.344830 -1.886451 -12.463132 7.271718 33.258580 -0.310267 1.940515 -1.288876 -0.199550 0.259060 -0.268900 -0.227290 
0.308150 16.367470 -1.309710 -10.250786 -51.804777 0.726753 -14.898188 13.019291 3.818678 15.495315 -5.387273 -14.953355 -12.009489 18.331208 52.349230 1.014551 11.220179 0.829400 0.625260 0.346870 0.386270 18.467464 -11.594914 1.936606 -5.096444 -3.258401 4.942504 -6.988940 -5.880780 35.520419 -1.095443 -6.329167 2.684377 0.090580 0.173590 0.080050 -4.915944 -1.110868 -6.868695 18.541731 -0.951245 8.868713 -9.647048 0.133907 8.275825 2.959288 -6.432982 -10.726581 -20.995520 15.602304 54.651270 -1.507090 9.966270 -3.695270 -27.838599 -3.664095 4.513292 -50.261587 -3.020660 -8.797618 -20.627812 -79.731094 7.921029 -3.263320 3.120267 0.772860 0.038180 0.114730 0.399370 21.030851 6.373683 6.289048 56.188421 -2.691939 -11.954510 8.015170 29.247217 -0.204647 1.978850 -1.229060 -0.199430 0.295470 -0.277920 -0.223120 
